HIERARCHY
ROOT Hips
{
	OFFSET 0.000000 0.000000 0.000000
	CHANNELS 6 Xposition Yposition Zposition Xrotation Yrotation Zrotation
	JOINT LeftUpLeg_virtual
	{
		OFFSET 0.000000 0.000000 0.000000
		CHANNELS 3 Xrotation Yrotation Zrotation
		JOINT LeftUpLeg
		{
			OFFSET 11.394100 -6.187798 -0.413800
			CHANNELS 3 Xrotation Yrotation Zrotation
			JOINT LeftLeg
			{
				OFFSET 0.430247 -32.302673 3.732800
				CHANNELS 3 Xrotation Yrotation Zrotation
				JOINT LeftFoot
				{
					OFFSET -0.430247 -48.264931 -6.423300
					CHANNELS 3 Xrotation Yrotation Zrotation
					JOINT LeftToeBase
					{
						OFFSET 4.230900 -16.068199 23.438400
						CHANNELS 3 Xrotation Yrotation Zrotation
						JOINT LeftToe_End
						{
							OFFSET 4.510700 0.695400 19.974600
							CHANNELS 3 Xrotation Yrotation Zrotation
							End Site
							{
								OFFSET 0 0 0
							}
						}
					}
				}
			}
		}
	}
	JOINT RightUpLeg_virtual
	{
		OFFSET 0.000000 0.000000 0.000000
		CHANNELS 3 Xrotation Yrotation Zrotation
		JOINT RightUpLeg
		{
			OFFSET -11.333700 -6.187798 -0.413800
			CHANNELS 3 Xrotation Yrotation Zrotation
			JOINT RightLeg
			{
				OFFSET -0.430392 -32.302628 3.733000
				CHANNELS 3 Xrotation Yrotation Zrotation
				JOINT RightFoot
				{
					OFFSET 0.430392 -48.264973 -6.423500
					CHANNELS 3 Xrotation Yrotation Zrotation
					JOINT RightToeBase
					{
						OFFSET -4.230900 -16.068199 23.438400
						CHANNELS 3 Xrotation Yrotation Zrotation
						JOINT RightToe_End
						{
							OFFSET -4.510700 0.695400 19.974600
							CHANNELS 3 Xrotation Yrotation Zrotation
							End Site
							{
								OFFSET 0 0 0
							}
						}
					}
				}
			}
		}
	}
	JOINT Spine_virtual
	{
		OFFSET 0.000000 0.000000 0.000000
		CHANNELS 3 Xrotation Yrotation Zrotation
		JOINT Spine
		{
			OFFSET -0.002400 12.777504 0.315300
			CHANNELS 3 Xrotation Yrotation Zrotation
			JOINT Spine1
			{
				OFFSET -0.002067 5.816869 0.032633
				CHANNELS 3 Xrotation Yrotation Zrotation
				JOINT Spine1_split
				{
					OFFSET -0.002067 5.816869 0.032633
					CHANNELS 3 Xrotation Yrotation Zrotation
					JOINT Spine2
					{
						OFFSET -0.002067 5.816869 0.032633
						CHANNELS 3 Xrotation Yrotation Zrotation
						JOINT Neck_virtual
						{
							OFFSET 0.000000 0.000000 0.000000
							CHANNELS 3 Xrotation Yrotation Zrotation
							JOINT Neck
							{
								OFFSET -0.003700 21.199493 -0.826900
								CHANNELS 3 Xrotation Yrotation Zrotation
								JOINT Head
								{
									OFFSET 0.000000 20.442200 4.834800
									CHANNELS 3 Xrotation Yrotation Zrotation
									JOINT HeadTop_End
									{
										OFFSET 0.000000 34.668396 4.968400
										CHANNELS 3 Xrotation Yrotation Zrotation
										End Site
										{
											OFFSET 0 0 0
										}
									}
								}
							}
						}
						JOINT LeftShoulder_virtual
						{
							OFFSET 0.000000 0.000000 0.000000
							CHANNELS 3 Xrotation Yrotation Zrotation
							JOINT LeftShoulder
							{
								OFFSET 3.288150 8.794197 -1.372250
								CHANNELS 3 Xrotation Yrotation Zrotation
								JOINT LeftShoulder_split
								{
									OFFSET 3.288150 8.794197 -1.372250
									CHANNELS 3 Xrotation Yrotation Zrotation
									JOINT LeftArm
									{
										OFFSET 11.953299 -2.279007 -0.146200
										CHANNELS 3 Xrotation Yrotation Zrotation
										JOINT LeftForeArm
										{
											OFFSET 18.448900 0.000000 0.000000
											CHANNELS 3 Xrotation Yrotation Zrotation
											JOINT LeftHand
											{
												OFFSET 29.527798 0.000000 0.000000
												CHANNELS 3 Xrotation Yrotation Zrotation
												End Site
												{
													OFFSET 0 0 0
												}
											}
										}
									}
								}
							}
						}
						JOINT RightShoulder_virtual
						{
							OFFSET 0.000000 0.000000 0.000000
							CHANNELS 3 Xrotation Yrotation Zrotation
							JOINT RightShoulder
							{
								OFFSET -3.249400 8.794197 -1.372250
								CHANNELS 3 Xrotation Yrotation Zrotation
								JOINT RightShoulder_split
								{
									OFFSET -3.249400 8.794197 -1.372250
									CHANNELS 3 Xrotation Yrotation Zrotation
									JOINT RightArm
									{
										OFFSET -11.953299 -2.279007 -0.146200
										CHANNELS 3 Xrotation Yrotation Zrotation
										JOINT RightForeArm
										{
											OFFSET -18.448900 0.000000 0.000000
											CHANNELS 3 Xrotation Yrotation Zrotation
											JOINT RightHand
											{
												OFFSET -29.527802 0.000000 0.000000
												CHANNELS 3 Xrotation Yrotation Zrotation
												End Site
												{
													OFFSET 0 0 0
												}
											}
										}
									}
								}
							}
						}
					}
				}
			}
		}
	}
}
MOTION
Frames: 4
Frame Time: 0.03333333
1.370661 142.868683 16.334414 0.000000 0.000000 0.000000 4.487888 -39.625486 2.448912 -94.076403 -16.078653 16.626910 80.676999 1.209783 2.555080 10.728016 1.161443 -0.703600 -9.828943 1.189420 0.455835 0.000000 0.000000 0.000000 4.149572 -39.543114 1.661237 -139.600925 -28.828927 -12.096011 109.522063 9.155198 -11.549104 45.729083 5.062095 20.104469 8.148652 2.484709 -3.547393 0.000000 0.000000 0.000000 3.773307 -39.220544 0.809154 32.245665 -5.941595 -8.536495 13.548047 0.888589 -3.608898 0.306578 -0.385405 1.274753 0.000000 0.000000 0.000000 13.178916 1.215292 -2.709651 -7.256054 19.058417 -12.816403 -25.227889 11.066650 4.800457 0.000000 0.000000 0.000000 14.612281 1.316273 -2.992737 13.476499 -17.212983 4.174824 1.521883 -3.170822 -4.226274 -57.527733 -11.596617 -3.792961 48.104899 -17.028452 29.998744 0.000000 0.000000 0.000000 14.885250 1.333167 -3.037936 18.943128 26.125663 -8.104841 1.174387 6.228297 2.712447 -37.396071 1.655220 6.273716 -44.694760 45.308927 32.990510 0.000000 0.000000 0.000000 
1.382363 142.815277 16.337624 0.000000 0.000000 0.000000 4.504539 -39.841316 2.503411 -94.019589 -16.011005 16.716435 80.610419 1.168794 2.440606 10.593403 1.438719 -0.759207 -9.813142 1.188366 0.420370 0.000000 0.000000 0.000000 4.156031 -39.754477 1.711893 -139.115381 -28.933979 -11.978964 109.228392 9.238309 -11.612236 45.455063 4.983083 19.862441 8.138759 2.484951 -3.615281 0.000000 0.000000 0.000000 3.745568 -39.359641 0.853585 32.201398 -5.923538 -8.565336 13.497756 0.900042 -3.581183 0.253235 -0.377620 1.295150 0.000000 0.000000 0.000000 13.211190 1.219945 -2.702248 -7.201683 19.103394 -12.800781 -24.964044 11.218342 4.707839 0.000000 0.000000 0.000000 14.587869 1.330642 -2.954364 13.211061 -17.334438 3.428830 1.690032 -3.257107 -4.505021 -56.795834 -10.982176 -3.795089 47.916390 -16.738012 29.681769 0.000000 0.000000 0.000000 14.864308 1.327180 -3.027193 18.481288 26.476106 -7.113392 1.248851 6.278208 2.672316 -36.361113 1.706038 6.106242 -44.687988 45.073627 32.853241 0.000000 0.000000 0.000000 
1.386272 142.760223 16.336311 0.000000 0.000000 0.000000 4.571969 -39.998862 2.605473 -93.896502 -15.960870 16.728988 80.470741 1.092407 2.337613 10.364349 1.749331 -0.823762 -9.820420 1.170983 0.424430 0.000000 0.000000 0.000000 4.197367 -39.891757 1.792113 -138.637950 -29.003763 -11.858942 108.956120 9.291426 -11.662881 45.154698 4.927923 19.655490 8.137843 2.478083 -3.653978 0.000000 0.000000 0.000000 3.747794 -39.477646 0.926495 32.096493 -5.900726 -8.581462 13.437670 0.902790 -3.554235 0.228996 -0.385053 1.311331 0.000000 0.000000 0.000000 13.228893 1.219486 -2.699193 -7.119842 19.134305 -12.778547 -24.677938 11.364799 4.657674 0.000000 0.000000 0.000000 14.552090 1.340102 -2.920247 13.001169 -17.402567 2.787499 1.778652 -3.369413 -4.809617 -56.033236 -10.186659 -3.648757 47.645378 -16.506081 29.356034 0.000000 0.000000 0.000000 14.824714 1.319727 -3.016175 18.061500 26.753431 -6.255149 1.340413 6.320224 2.710655 -35.479202 1.465248 5.794976 -44.735936 44.780202 32.743346 0.000000 0.000000 0.000000 
1.383378 142.714233 16.313927 0.000000 0.000000 0.000000 4.685501 -40.078502 2.768393 -93.716288 -15.924622 16.659113 80.267796 0.996038 2.247190 10.092645 2.094419 -0.888921 -9.845532 1.140889 0.460996 0.000000 0.000000 0.000000 4.274629 -39.963775 1.925644 -138.193496 -29.030876 -11.784274 108.698847 9.321171 -11.696724 44.846517 4.920307 19.493546 8.130993 2.467686 -3.676953 0.000000 0.000000 0.000000 3.773178 -39.570103 1.049360 31.953073 -5.889781 -8.588611 13.377798 0.894701 -3.531657 0.249857 -0.380758 1.361555 0.000000 0.000000 0.000000 13.234134 1.212633 -2.702509 -7.036950 19.154547 -12.750345 -24.410842 11.507970 4.644117 0.000000 0.000000 0.000000 14.503570 1.341839 -2.895789 12.831010 -17.426160 2.195250 1.766645 -3.443671 -5.125683 -55.258221 -9.207917 -3.405854 47.382730 -16.379550 29.092337 0.000000 0.000000 0.000000 14.764463 1.308782 -3.006043 17.689647 26.969077 -5.509762 1.466561 6.361237 2.813022 -34.810524 1.106872 5.419153 -44.760323 44.396281 32.580914 0.000000 0.000000 0.000000 
